<?xml version="1.0" encoding="UTF-8"?>
<!--
  Hanging alliance banner.
  Raster asset. NOT transparent: the blue field is the cloth.
  Starbird centred in the upper half, two bars near the foot.
-->
<svg xmlns="http://www.w3.org/2000/svg" viewBox="0 0 300 800" width="300" height="800">

  <!-- cloth -->
  <rect x="0" y="0" width="300" height="800" fill="#0a3463"/>

  <!-- hanging bar and shadow line -->
  <rect x="0" y="0" width="300" height="26" fill="#082849"/>
  <rect x="0" y="26" width="300" height="6" fill="#0d3f74"/>

  <!-- starbird, scaled to 0.60 of the crest drawing -->
  <path fill="#f2cd37" d="M150 136.8
    C156.6 162 161.4 183.6 167.4 206.4
    C188.4 192 216 180 247.2 176.4
    C234 207.6 210 235.2 180 253.2
    C189.6 288 193.2 325.2 186 367.2
    L150 342
    L114 367.2
    C106.8 325.2 110.4 288 120 253.2
    C90 235.2 66 207.6 52.8 176.4
    C84 180 111.6 192 132.6 206.4
    C138.6 183.6 143.4 162 150 136.8
    Z"/>

  <!-- two bars near the foot -->
  <rect x="40" y="612" width="220" height="34" fill="#f2cd37"/>
  <rect x="40" y="678" width="220" height="34" fill="#f2cd37"/>

  <!-- foot hem -->
  <rect x="0" y="768" width="300" height="32" fill="#082849"/>

</svg>
